<svg xmlns="http://www.w3.org/2000/svg" fill="none" height="13" viewBox="0 0 1976 235" width="103"><g fill="#fff"><path d="M1971 0h-163a5 5 0 0 0-5 5v6a5 5 0 0 0 5 5h73v214c0 2.761 2.24 5 5 5h7c2.76 0 5-2.239 5-5V16h73a5 5 0 0 0 5-5V5a5 5 0 0 0-5-5zm-602.89 0c9.38 0 18.22 4.386 23.89 11.856l169.9 223.707h-5.02c-9.37 0-18.21-4.384-23.88-11.85L1363 0z"/><path d="M1558.3.098a29.994 29.994 0 0 0-24.04 11.545l-172.78 221.489 5.02.065a30.016 30.016 0 0 0 24.04-11.539L1563.41.164zM1607 5a5 5 0 0 1 5-5h12v235h-12c-2.76 0-5-2.239-5-5zm17 121v-17h100c2.76 0 5 2.239 5 5v7c0 2.761-2.24 5-5 5zm0-109V0h72v17zm0 218v-17h76c2.76 0 5 2.239 5 5v7c0 2.761-2.24 5-5 5z"/><path d="M1696 0a63.01 63.01 0 0 1 44.55 18.452A63.018 63.018 0 0 1 1759 63a63.02 63.02 0 0 1-18.45 44.548A63.01 63.01 0 0 1 1696 126v-16.947c12.21 0 23.93-4.852 32.56-13.489A46.04 46.04 0 0 0 1742.05 63a46.04 46.04 0 0 0-13.49-32.564A46.039 46.039 0 0 0 1696 16.947z"/><path d="M1696 109a63.01 63.01 0 0 1 44.55 18.452A63.018 63.018 0 0 1 1759 172a63.018 63.018 0 0 1-18.45 44.548A63.01 63.01 0 0 1 1696 235v-16.947c12.21 0 23.93-4.852 32.56-13.489A46.038 46.038 0 0 0 1742.05 172a46.038 46.038 0 0 0-13.49-32.564 46.037 46.037 0 0 0-32.56-13.489zm-624-21a5 5 0 0 1-5 5h-45a5 5 0 0 1-5-5V5a5 5 0 0 1 5-5h45a5 5 0 0 1 5 5zm0 142c0 2.761-2.24 5-5 5h-45c-2.76 0-5-2.239-5-5v-83c0-2.761 2.24-5 5-5h45c2.76 0 5 2.239 5 5z"/><path d="M1043 46a5 5 0 0 1-5-5V5a5 5 0 0 1 5-5h140a5 5 0 0 1 5 5v36a5 5 0 0 1-5 5zm0 189c-2.76 0-5-2.239-5-5v-36c0-2.761 2.24-5 5-5h140c2.76 0 5 2.239 5 5v36c0 2.761-2.24 5-5 5zm29-137a5 5 0 0 1 5-5h39a5 5 0 0 1 5 5v39c0 2.761-2.24 5-5 5h-39c-2.76 0-5-2.239-5-5zM760 229a5 5 0 0 1-5 5h-45a5 5 0 0 1-5-5V5a5 5 0 0 1 5-5h45a5 5 0 0 1 5 5zm184 0a5 5 0 0 1-5 5h-45a5 5 0 0 1-5-5V5a5 5 0 0 1 5-5h45a5 5 0 0 1 5 5z"/><path d="M828.102 219.247c-1.955 3.507-7.037 3.395-8.836-.195l-24.155-48.192a4.998 4.998 0 0 1 .098-4.668l90.862-163.62A5 5 0 0 1 890.442 0h17.037a5 5 0 0 1 3.474 1.405l22.341 21.593a4.999 4.999 0 0 1 .892 6.03z"/><path d="M819.33 218.718c1.977 3.507 7.078 3.358 8.847-.259l23.284-47.615a5.002 5.002 0 0 0-.12-4.624L760.463 2.573a4.999 4.999 0 0 0-4.371-2.572h-17.036a5.003 5.003 0 0 0-3.475 1.404l-22.327 21.58a4.999 4.999 0 0 0-.881 6.051z"/><rect height="93" rx="5" transform="rotate(180 632 93)" width="55" x="632" y="93"/><rect height="92" rx="5" transform="rotate(180 632 234)" width="55" x="632" y="234"/><path d="M366 230a5 5 0 0 1-5 5h-45a5 5 0 0 1-5-5V5a5 5 0 0 1 5-5h45a5 5 0 0 1 5 5z"/><path d="M353 46V0h55v46zm0 147v-46h55v46z"/><path d="M407.5 193a96.502 96.502 0 0 0 68.236-164.736A96.501 96.501 0 0 0 407.5 0v45.942a50.559 50.559 0 0 1 0 101.116z"/><path d="M374 147h29l18.527 7 72.37 72.37c3.15 3.15.919 8.536-3.535 8.536h-40.048a30.002 30.002 0 0 1-21.077-8.652l-24.918-24.602A29.996 29.996 0 0 0 383.242 193H374z"/><rect height="49" rx="5" width="49" y="93"/><path d="M104 142H54a5 5 0 0 0-5 5v83a5 5 0 0 0 5 5h45a5 5 0 0 0 5-5v-36.5a5 5 0 0 1 5-5h34.5c40.715 0 65.512-26.435 75.249-39.442 2.289-3.056.045-7.058-3.773-7.058zM49 5a5 5 0 0 1 5-5h107.5c43.995 0 72.44 48.48 76.148 86.826.273 2.823-2.007 5.174-4.844 5.174H187.84c-2.698 0-4.935-2.122-5.27-4.8-1.476-11.785-7.882-41.2-35.07-41.2H109a5 5 0 0 0-5 5v37a5 5 0 0 1-5 5H54a5 5 0 0 1-5-5z"/></g></svg>