<svg xmlns="http://www.w3.org/2000/svg" width="36" height="20" fill="#fff"><path d="M19.608 0c.788 0 1.53.372 2.006 1.007L35.873 20h-.421a2.508 2.508 0 0 1-2.005-1.006L19.179 0h.43Z"/><path d="M35.57.008a2.507 2.507 0 0 0-2.017.98L19.052 19.795l.421.005a2.507 2.507 0 0 0 2.017-.98L36 .014l-.43-.006ZM0 8.32c0-.234.188-.424.42-.424h3.273c.232 0 .42.19.42.425v3.31a.422.422 0 0 1-.42.425H.42a.422.422 0 0 1-.42-.424V8.32ZM8.729 12.056H4.532c-.232 0-.42.19-.42.425v7.047c0 .234.188.424.42.424H8.31c.232 0 .42-.19.42-.424v-3.1c0-.234.188-.424.42-.424h2.895c3.417 0 5.498-2.244 6.316-3.349.192-.26.003-.599-.317-.599H8.729ZM4.113.425C4.113.19 4.3 0 4.533 0H13.554c3.692 0 6.08 4.116 6.39 7.372a.403.403 0 0 1-.406.44h-3.774a.456.456 0 0 1-.442-.408c-.124-1.001-.662-3.498-2.943-3.498H9.148c-.231 0-.42.19-.42.424v3.141a.422.422 0 0 1-.419.425H4.532a.422.422 0 0 1-.42-.425V.425Z"/></svg>