<svg xmlns="http://www.w3.org/2000/svg" width="128" height="46" fill="none"><g opacity=".5" clip-path="url(#a)" fill="#fff"><path d="M46.237 19.265a3.384 3.384 0 0 0-1.069-2.224 3.35 3.35 0 0 0-2.29-.898h-1.883v-5.909a10.796 10.796 0 0 0-.458-2.559 10.49 10.49 0 0 0-.788-1.919 10.598 10.598 0 0 0-3.652-4.062A10.522 10.522 0 0 0 30.918 0a10.844 10.844 0 0 0-5.921 1.39 10.923 10.923 0 0 0-4.258 4.366 9.137 9.137 0 0 0-.763 1.92 10.611 10.611 0 0 0-.33 1.611 57.41 57.41 0 0 0-.255 6.063v.921h-1.4a3.519 3.519 0 0 0-2.863.987 3.556 3.556 0 0 0-1.056 2.851V35.05a3.65 3.65 0 0 0 1.036 3.045 3.61 3.61 0 0 0 3.036 1.023h24.124a3.62 3.62 0 0 0 3.035-1.042 3.662 3.662 0 0 0 1.036-3.051V23.972c0-1.56.026-3.147-.102-4.707Zm-24.582-3.3a48.106 48.106 0 0 1 .204-6.908c.08-.467.19-.929.33-1.382a8.712 8.712 0 0 1 1.044-1.919 8.537 8.537 0 0 1 3.102-2.652 8.487 8.487 0 0 1 3.973-.904 8.691 8.691 0 0 1 3.834.978 8.74 8.74 0 0 1 3.01 2.578c.42.594.761 1.239 1.019 1.92.21.596.354 1.213.432 1.841a56.91 56.91 0 0 1 0 6.6H21.757s-.102-.101-.102-.153ZM39.47 23.64 30.23 32.9a1.222 1.222 0 0 1-1.376.287 1.221 1.221 0 0 1-.405-.287l-4.402-4.426a1.288 1.288 0 0 1 0-1.817 1.274 1.274 0 0 1 1.806 0l3.512 3.531 8.321-8.366a1.274 1.274 0 0 1 1.807 0 1.288 1.288 0 0 1 0 1.817h-.025Z"/><path d="M107.973 5.756h-70.82c.419.594.76 1.239 1.018 1.92h69.802a18.028 18.028 0 0 1 7.139 1.184c2.277.873 4.354 2.2 6.109 3.899a18.209 18.209 0 0 1 4.104 5.99 18.29 18.29 0 0 1 0 14.257 18.209 18.209 0 0 1-4.104 5.992 18.102 18.102 0 0 1-6.109 3.899 18.028 18.028 0 0 1-7.139 1.184H20.027A18.074 18.074 0 0 1 7.63 38.57a18.266 18.266 0 0 1-5.123-12.617 18.268 18.268 0 0 1 5.017-12.66 18.076 18.076 0 0 1 12.35-5.617h2.316a8.712 8.712 0 0 1 1.043-1.919h-3.206a19.986 19.986 0 0 0-14.17 5.901 20.202 20.202 0 0 0-5.87 14.247 20.202 20.202 0 0 0 5.87 14.246 19.985 19.985 0 0 0 14.17 5.901h87.946a19.93 19.93 0 0 0 7.88-1.32 20.006 20.006 0 0 0 6.74-4.313 20.127 20.127 0 0 0 4.527-6.618 20.22 20.22 0 0 0 0-15.741 20.126 20.126 0 0 0-4.527-6.619 20.006 20.006 0 0 0-6.74-4.312 19.93 19.93 0 0 0-7.88-1.32v-.052Z"/><path d="M54.967 19.751c.004.45.127.892.356 1.28a2.292 2.292 0 0 0 2.087.895c.38 0 .758-.061 1.12-.18.309-.05.592-.204.805-.435.212-.233.34-.53.365-.844a1.183 1.183 0 0 0-.458-1.048 5.301 5.301 0 0 0-1.425-.563L56.62 18.6a5.96 5.96 0 0 1-1.654-.691 1.915 1.915 0 0 1-.865-1.714 2.57 2.57 0 0 1 .84-2.047 3.322 3.322 0 0 1 2.34-.793 3.777 3.777 0 0 1 2.367.716 2.557 2.557 0 0 1 .992 2.226h-1.17a2.285 2.285 0 0 0-.382-1.151 2.187 2.187 0 0 0-1.832-.716 2.027 2.027 0 0 0-1.501.46 1.486 1.486 0 0 0-.458 1.075 1.054 1.054 0 0 0 .534.997c.512.228 1.05.391 1.603.486l1.247.308c.495.092.965.293 1.374.588a2.172 2.172 0 0 1 .84 1.868 2.364 2.364 0 0 1-1.069 2.174 4.713 4.713 0 0 1-2.544.665 3.601 3.601 0 0 1-2.545-.895 2.967 2.967 0 0 1-.942-2.354l1.17-.05ZM63.466 19.75c-.006.453.118.897.356 1.28a2.241 2.241 0 0 0 2.087.895c.414.007.827-.053 1.222-.179a1.4 1.4 0 0 0 1.043-1.279 1.156 1.156 0 0 0-.433-1.049 5.07 5.07 0 0 0-1.45-.563l-1.196-.256a6.72 6.72 0 0 1-1.654-.69 1.967 1.967 0 0 1-.84-1.714 2.572 2.572 0 0 1 .84-2.047 3.272 3.272 0 0 1 2.34-.793 3.879 3.879 0 0 1 2.367.716 2.556 2.556 0 0 1 .968 2.226H67.97a2.9 2.9 0 0 0-.381-1.151 2.29 2.29 0 0 0-1.858-.717 2.08 2.08 0 0 0-1.501.46 1.484 1.484 0 0 0-.458 1.075 1.053 1.053 0 0 0 .534.998c.523.223 1.07.386 1.629.486l1.221.307a3.4 3.4 0 0 1 1.4.589 2.174 2.174 0 0 1 .84 1.867 2.364 2.364 0 0 1-1.07 2.175 4.815 4.815 0 0 1-2.544.665 3.678 3.678 0 0 1-2.545-.895 2.968 2.968 0 0 1-.916-2.354l1.145-.051ZM71.253 13.534H72.5v8.084h4.58v1.1h-5.827v-9.184ZM54.967 35.101c.004.45.127.892.356 1.28a2.292 2.292 0 0 0 2.087.895c.38 0 .758-.061 1.12-.18.31-.075.587-.256.782-.513.194-.256.295-.571.286-.893a1.184 1.184 0 0 0-.458-1.05 5.302 5.302 0 0 0-1.425-.562l-1.196-.256a5.955 5.955 0 0 1-1.552-.563 1.915 1.915 0 0 1-.865-1.714 2.57 2.57 0 0 1 .84-2.047 3.322 3.322 0 0 1 2.34-.793 3.777 3.777 0 0 1 2.367.717 2.557 2.557 0 0 1 .992 2.225h-1.17a2.285 2.285 0 0 0-.382-1.15 2.187 2.187 0 0 0-1.832-.717 2.027 2.027 0 0 0-1.501.46 1.486 1.486 0 0 0-.458 1.075 1.054 1.054 0 0 0 .534.997c.512.228 1.05.391 1.603.487l1.247.307c.495.092.965.293 1.374.588a2.172 2.172 0 0 1 .84 1.868 2.364 2.364 0 0 1-1.069 2.174 4.713 4.713 0 0 1-2.544.666 3.601 3.601 0 0 1-2.545-.896 2.967 2.967 0 0 1-.942-2.354l1.17-.05ZM62.78 28.884h6.616v1.126h-5.42v2.789h5.089v1.074h-5.09v3.096h5.497v1.1h-6.693v-9.185ZM77.59 29.55c.599.54.972 1.29 1.043 2.098h-1.196a2.33 2.33 0 0 0-.893-1.469 2.307 2.307 0 0 0-1.652-.45 2.533 2.533 0 0 0-2.138.946 4.47 4.47 0 0 0-.814 2.917 4.47 4.47 0 0 0 .738 2.558 2.548 2.548 0 0 0 2.189.998 2.381 2.381 0 0 0 2.06-1.049c.27-.456.452-.96.535-1.484h1.222a4.027 4.027 0 0 1-1.07 2.43 3.715 3.715 0 0 1-2.9 1.203 3.78 3.78 0 0 1-2.545-.972 5.121 5.121 0 0 1-1.425-3.966 5.135 5.135 0 0 1 1.069-3.326 3.818 3.818 0 0 1 3.155-1.407 3.78 3.78 0 0 1 2.621.973ZM81.661 28.884v5.68a3.29 3.29 0 0 0 .382 1.663 1.964 1.964 0 0 0 1.883.998 2.205 2.205 0 0 0 2.138-1.075c.226-.497.33-1.04.305-1.586v-5.68h1.247v5.117a5.99 5.99 0 0 1-.458 2.559c-.351.511-.82.93-1.368 1.219a3.8 3.8 0 0 1-4.918-1.22 5.991 5.991 0 0 1-.458-2.558v-5.117h1.247ZM89.651 28.884H93.8a4.154 4.154 0 0 1 1.705.308c.404.19.74.502.962.89.223.39.323.837.285 1.284a2.57 2.57 0 0 1-.33 1.356c-.245.351-.568.64-.942.844a1.542 1.542 0 0 1 1.094 1.714v1.228c-.024.264-.024.53 0 .794a.745.745 0 0 0 .382.562v.205h-1.502a.87.87 0 0 1 0-.307 6.687 6.687 0 0 1 0-.716V35.51a1.26 1.26 0 0 0-.636-1.203 2.354 2.354 0 0 0-1.094-.179h-2.825v3.94h-1.247v-9.185Zm4.021 4.222c.475.021.946-.104 1.349-.358a1.433 1.433 0 0 0 .483-1.254 1.413 1.413 0 0 0-.687-1.356 2.531 2.531 0 0 0-.992-.179h-2.927v3.147h2.774ZM98.813 28.884h6.641v1.126h-5.42v2.789h5.089v1.074h-5.089v3.096h5.497v1.1h-6.719v-9.185ZM107.235 28.884h3.665a3.422 3.422 0 0 1 2.875 1.356 4.95 4.95 0 0 1 .916 3.02 6.224 6.224 0 0 1-.534 2.558 3.347 3.347 0 0 1-1.305 1.58 3.322 3.322 0 0 1-1.978.517h-3.639v-9.03Zm3.41 8.136c.346.01.69-.043 1.018-.153a2.212 2.212 0 0 0 1.145-.921c.269-.436.442-.925.509-1.433a4.28 4.28 0 0 0 0-.947c.03-.899-.2-1.788-.661-2.558a2.37 2.37 0 0 0-2.112-.947h-2.164v7.061l2.265-.102Z"/></g><defs><clipPath id="a"><path fill="#fff" d="M0 0h128v46H0z"/></clipPath></defs></svg>